<svg width="110" height="120" viewBox="0 0 110 120" fill="none" xmlns="http://www.w3.org/2000/svg">
<path d="M100.802 80.8682C99.9803 85.6005 97.0576 89.7336 92.7837 92.2094C88.7993 94.5169 84.025 95.2057 78.9696 95.9344C76.2617 96.3247 73.4614 96.7291 70.7258 97.4034C63.4927 99.187 56.4866 102.667 49.7118 106.032C36.1528 112.767 24.4434 118.583 13.4023 110.931C5.31458 105.325 5.68789 94.9544 6.63008 89.2715C7.5034 84.006 9.86442 79.1569 12.1472 74.4676C12.5361 73.6706 12.9219 72.8721 13.3045 72.0721C14.4553 72.5321 15.6627 72.835 16.8943 72.9726C14.5703 80.6424 18.2251 88.9819 25.8958 92.9225L26.946 93.462L28.0574 93.0662C34.1217 90.9063 39.7099 87.4411 44.6662 82.7645C47.8699 79.7419 50.6246 76.3979 52.8887 72.8247C53.577 72.9285 54.2722 72.9807 54.9683 72.9807C62.0088 72.9807 67.8389 67.7174 68.7411 60.9197C71.623 60.8142 74.6838 60.8134 77.5823 60.9188C78.4837 67.7174 84.3146 72.9811 91.3551 72.9811C94.299 72.9811 97.0295 72.0585 99.2792 70.4913C100.841 73.6882 101.424 77.2852 100.802 80.8682ZM18.4445 50.7217C23.0994 50.7217 26.886 54.5088 26.886 59.1637C26.886 60.8355 26.3954 62.3946 25.5531 63.7076C24.15 65.896 21.7648 67.396 19.0245 67.5831C18.8327 67.5958 18.6393 67.6052 18.4445 67.6052C17.4071 67.6052 16.4135 67.416 15.4946 67.0724C13.6442 66.3766 12.0946 65.0568 11.1132 63.3406C10.3844 62.0692 10.0015 60.6291 10.0026 59.1637C10.0026 54.5088 13.7897 50.7217 18.4445 50.7217ZM46.5272 59.0833C46.5272 54.8541 49.6535 51.3425 53.7157 50.7353C54.1247 50.6737 54.5431 50.6418 54.9687 50.6418C57.675 50.6418 60.0845 51.9237 61.6296 53.9102C62.0166 54.4055 62.3471 54.9424 62.6151 55.511C63.1398 56.6287 63.4113 57.8485 63.4102 59.0833C63.4102 59.7581 63.3286 60.4141 63.1785 61.0434C62.3558 64.4873 59.419 67.12 55.8203 67.4823C55.5406 67.5104 55.2565 67.5248 54.9687 67.5248C53.345 67.5262 51.7558 67.0563 50.3938 66.1723C48.0697 64.6668 46.5272 62.0523 46.5272 59.0833ZM81.7597 49.0448C79.9227 50.7983 78.6006 53.021 77.9369 55.4723C74.7551 55.355 71.57 55.355 68.3882 55.4723C67.6739 52.8226 66.1934 50.4849 64.2015 48.7094L72.9368 31.0466L81.7597 49.0453V49.0448ZM44.1322 5.45675H101.717L88.1161 45.5703C87.5309 45.7104 86.9556 45.8887 86.3937 46.1039L72.958 18.6956L59.4841 45.9402C58.8967 45.7386 58.2964 45.5768 57.6873 45.4559L44.1322 5.45675ZM99.7966 59.0837C99.7966 59.9298 99.6703 60.747 99.4378 61.5187C98.886 63.3355 97.7401 64.9144 96.1839 66.0023C94.7694 66.9949 93.0831 67.5268 91.3551 67.5252C87.4575 67.5252 84.1696 64.8691 83.2027 61.2721C83.0107 60.5585 82.9135 59.8227 82.9136 59.0837C82.9136 57.9298 83.1466 56.8294 83.5675 55.8269C83.7847 55.3139 84.0522 54.8237 84.366 54.3634C85.8852 52.121 88.4486 50.6422 91.3551 50.6422C91.6217 50.6422 91.8844 50.6558 92.1451 50.6805C96.4309 51.0797 99.797 54.695 99.797 59.0837H99.7966ZM105.253 59.0837C105.253 52.2987 100.364 46.6375 93.9253 45.4283L109.328 0H36.5223L51.9486 45.5201C45.7334 46.9032 41.0713 52.4573 41.0713 59.0833C41.0713 64.0588 43.7006 68.4287 47.6412 70.8846C45.7457 73.7086 43.4982 76.366 40.9225 78.7963C36.8374 82.6497 32.2867 85.5724 27.3805 87.4955C22.4387 84.3913 20.3498 78.537 22.519 73.4374L22.6891 73.0377L23.008 72.2877C28.4358 70.3943 32.3419 65.2284 32.3419 59.1637C32.3419 51.5002 26.1075 45.2658 18.4445 45.2658C10.7811 45.2658 4.54671 51.5002 4.54671 59.1637C4.54671 63.0315 6.13688 66.5342 8.6956 69.0563C8.21838 70.0674 7.73395 71.0751 7.24234 72.0793C4.90258 76.8843 2.25116 82.3304 1.24817 88.3786C-0.743372 100.39 2.46928 109.992 10.2947 115.415C15.0431 118.706 19.8655 120 24.7181 120C33.8552 120 43.0985 115.409 52.1391 110.919C58.6499 107.685 65.3826 104.341 72.0328 102.701C74.5074 102.091 77.0534 101.723 79.749 101.335C85.0948 100.563 90.6221 99.7662 95.5185 96.9306C101.194 93.6431 105.079 88.1286 106.178 81.8019C107.121 76.3702 105.986 70.9301 103.218 66.316C104.552 64.1395 105.256 61.636 105.253 59.0833L105.253 59.0837Z" fill="white"/>
</svg>
